<mxfile host="65bd71144e">
    <diagram id="HIP3nbAZw_EuaXWnEj3U" name="Page-1">
        <mxGraphModel dx="1003" dy="681" grid="1" gridSize="10" guides="1" tooltips="1" connect="1" arrows="1" fold="1" page="1" pageScale="1" pageWidth="850" pageHeight="1100" background="#ffffff" math="0" shadow="0">
            <root>
                <mxCell id="0"/>
                <mxCell id="1" parent="0"/>
                <mxCell id="7" value="&lt;span style=&quot;font-size: 24px;&quot;&gt;Welcome to the Museum!&lt;/span&gt;" style="swimlane;whiteSpace=wrap;html=1;startSize=50;fillColor=#000000;fontColor=#ffffff;strokeColor=#000000;" parent="1" vertex="1">
                    <mxGeometry x="50" y="70" width="1019" height="590" as="geometry"/>
                </mxCell>
                <mxCell id="8" value="Please enter the following" style="text;html=1;align=left;verticalAlign=middle;resizable=0;points=[];autosize=1;strokeColor=none;fillColor=none;fontSize=24;fontColor=#000000;" parent="7" vertex="1">
                    <mxGeometry x="30" y="85" width="290" height="40" as="geometry"/>
                </mxCell>
                <mxCell id="13" value="Calculate" style="rounded=1;whiteSpace=wrap;html=1;fontFamily=Helvetica;fontSize=24;fontColor=#000000;fillColor=none;strokeWidth=5;strokeColor=#000000;" parent="7" vertex="1">
                    <mxGeometry x="70" y="490" width="150" height="40" as="geometry"/>
                </mxCell>
                <mxCell id="32" value="11" style="rounded=1;whiteSpace=wrap;html=1;fontFamily=Helvetica;fontSize=24;fontColor=#000000;fillColor=none;strokeWidth=5;strokeColor=#000000;" parent="7" vertex="1">
                    <mxGeometry x="60" y="430" width="170" height="40" as="geometry"/>
                </mxCell>
                <mxCell id="33" value="" style="shape=image;verticalLabelPosition=bottom;labelBackgroundColor=default;verticalAlign=top;aspect=fixed;imageAspect=0;image=data:image/png,iVBORw0KGgoAAAANSUhEUgAAAgAAAAIACAYAAAD0eNT6AAAABHNCSVQICAgIfAhkiAAAAAlwSFlzAAAOxAAADsQBlSsOGwAAABl0RVh0U29mdHdhcmUAd3d3Lmlua3NjYXBlLm9yZ5vuPBoAACAASURBVHic7N13fFPlGgfw5yRN0r33hhYoBQp00NLSUpZ4ARUERAWRoeBlOwBBmQIiIkMZigPZypIle3RANy3QvaCle9C9kjQ5949YL2J7kpycpBnP9/Phc6/kjBdIz3nOeX/v+wIghBBCSOcQ3d0AhFC3sAeA4X/9/wgAqOi+piCEEEJI2awBYA8ACACA/OsXHwC+/eszhBBCCGkRLgAsBYBa+P+N/8VfjQCwHgD0u6eJCCGEEGIKAQBTASAfur7xv/jrKQDMAwBWN7QXIYQQQgoKAoC7IPuN/8VfifD/nABCCCGE1FwvADgJAGKgf/N//tcNAOin0j8BQgghhGRmCQBbAaANmLnxP/9LAAA/AICtyv40CCGEEKIkS8CPqV+1ALASMCiIEEIIdRs6AT+mfj0FgJmAc4kghBBCKjUMAOKB5g2cy2EVfLlidOyXK0bHcjmsArrHAYA4AAhR/h8XIYQQ0m0KBfwIgqh985X+EQV3P2orTVhOliYsJwtjPhYsnhUYxSKIKjrH/OvXRQDwVMGfHyHEEHx9h5BmsASAFQCwDAB4NPYXDvZ2iDu0Y5K3taWRVWcb1DW01S1ae/nh7Zj8QKDXxy8EgIMAsAYAKmnsjxBSISwAEFJvHACYDQCbgeZUvU52JoknvnvDztPd0lWW7YvL6ktnfvTHk6z8qmCgd42oBYCvAGA3SEYkIITUEBYACKmvVwBgJwB40NnZ2Iibvm/TK6LRIT196Owfk1yc8d7yc+11ja209gdJUHANABwBSTcBQkiNYAGAkPoZAgDfgCToJzc2m1W6fF7Ik8WzgoIJQvGf8RMXUxNXbb1uKxCK3WgeIhEAPgaAaEXbghBiDhYACKkPVwDYBAAzgMbPJkEQddMm9Hu4deVLQVwum05OoEvCdrFw+4G7cXsPJXiLSbLTDIEMLgHAhwCQx2DTEEI0YQGAUPezAMnkOkoL+DGFwaDg5wBQxWjjEEJywQIAoe7TEfDbBAA2dA4gCfhNtfV0t6L7ep6WwpK60tmfnGMiKLgLAPiMNg4hJBMsABDqHooG/DL2bXqlnW7AjykxSUXp7608L8KgIEKaBwsAhFRrCABsB4BQOjszHfBjyomLqYmfbr1uJxSKZRpq2IkEAPgEMCiIkMqozQUEIS3HSMDvy5VjAnlcPbVciIfBoOAykKxvgBBSIiwAEFKujoDfUqAZmhvs7RB38JtJfW2tjGhNBKRqzwUFg4BmqBEwKIiQ0mEBgJByaGzAjykYFERIvWEBgBDzXgGAHUBzcRxjI27Gvi8mCEcP8xjIbLO6BwYFEVJPWAAgxJwAkMzgRzPgR5QunzdM7QJ+TGEgKBgPkqDgXQabhZDO0rqLDELdwAUki/XQDPhB/bQJ/R+oc8CPKR1BwT2HEvqRJGlJ8zAYFESIAVgAIESfzgX8mFLb0Fq7eO2VRwoGBfcDwDoAqGO0cQjpCCwAEJJfR8DvCwCwpXMAawvD5GPfTjEd0MeOVk5AW+Q8qS6Y/fG5sifFtUFA73pUAwDbAIOCCMkNCwCE5KNYwM+Qm/ndxvGCsWGeWhHwY8rdxKfp7396TlzfyB9A8xC5APAZAJwGDAoiJBMsABCSTQBIZvALo7Mzm02ULnhnSP7KD0JDWCyCxWzTtANJAvnLqeS4jbvvOAuFYheah4kHydLD9xhsGkJaCQsAhKgpFvADaB4/sk/SdxvHaX3AjylCoUiwYXdE3MFTyQNJEsxoHIIEyZuATwHgMbOtQ0h7YAGAUOeMQTLkbCVgwK9bMBAUFADA94BBQYQ6hQUAQv+EAT81g0FBhJQDCwCE/m80SG4S/ejsjAE/5YpOLEyb9+l5EoOCCDEDCwCEAPxBEvAbTmdnNosoWzBzSB4G/JSPoaBgHEiCgjEMNg0hjYMFANJlLiBZce49AJD7xt0R8Pt2w7gh+jw9A8Zbh7qEQUGEFIcFANJFigb82gd7O8T+sn2il521Ma2V/hAzMCiIEH1YACBd0hHw2wgAdnQOYG1hmHxk12TTgX3tMeCnRrLzqwvmLD9X9qS4dijNQ3QEBXeCpChASOthAYB0xWiQXNz709nZyJCbuWfDeP7Y4Z6DmG0WYlJ0YmHavJXnyfom2kHBHJB0C51isFkIqSUsAJC28wPJEr0Y8NMRfwcFd95xFoowKIhQV7AAQNrKGQDWAAb8dNZzQcFBJAmmNA7RERRcCQBPmG0dQt0PCwCkbToCfisAgM6NGwN+WqamrrVmyforqbdj8ocCAJfGITqCgmsBoJ7RxiHUjbAAQNpCDwDmgIIBv8M7XzcZ5O3Qi9GWIbXAQFDwGQB8DRgURFoCCwCkDRQL+Blws3ZvHNc2bngvDPjpgKj4wrT3V52HxiY+re8LYFAQaQksAJAm8wPJDH7hdHZms4jyBTOH5K74IDSYzSLYjLYMqTWGgoKxIAkKxjLYNIRUBgsApIk6An5zAYDOjbt5Agb8EDAaFFwBAAWMNg4hJcMCAGkSIwBYDvQDfmIvD5vY499N6WVvbUxrpT+knWrqWmve//R8WmxyUTBI8iTyagWAbwHgS8CgINIQWAAgTYABP6QSWflVT+YuP1+uYFDwCwDYCwDtzLUMIeZhAYDU3WgA2AEAtGZ20+ex87atGls7ZVy/AGabhbTZ5Ts5KUvXXzFobhV40TxENki6qTAoiNQWFgBIXfmCJOA3gs7OGPBDiuoICm7YecelXSR2pnmY2yDptkpmsGkIMQILAKRunEAy4QrtgN/IYI+k7zdP8Dc24hox2zSki9r47a2rt91I+P1Smi9JggmNQ2BQEKklLACQujACgEUgGV9tTGN/DPghpaquaa2Zv5qRoOAWAGhgtHEI0YAFAOpuLACYAQBfAYA9nQNIAn6TjQd52/dmtGUIdYKBoGA1AGwCDAqiboYFAOpOo0GyUp8PnZ15XHb+16vH1mDAD3WHy3dyUhavu2zQ2iakGxTMAkl3FwYFUbfAAgB1B2+QzKk+js7OLBZRsXDmkBwM+KHuJhaT4oOnU+LX77zjKhKJnWge5jZIFrBKYbBpCEmFBQBSJUYCfvs3j/czMeLRyQkgpBStbcKWz76+mahAUFAMAGdAMmKgkNnWIdQ5LACQKnQE/D4DoHdx9PKwiT2+e6qnva0RrYmAEFIFBoKCLQDwHWBQEKkAFgBImTDgh3RSZm7V4/dWnq/AoCBSZ1gAIGVROOD31eqxNW9gwA9psD9vZ6csWX/FsLVN2IfmITAoiJQGCwDENG8A2AYA4+nsjAE/pG0YCgreAklQ8AGDTUM6DgsAxBRHAFgH9AN+LSODPRIx4Ie0FQYFkbrBAgApCgN+CMnhuaBgCNAslgGDgogBWAAgujoCflsBwIHOAawtDJN/3THR2LefEwb8kM5Jz618PG/lBSaCgnsAQMRcy5CuwAIA0TEaJCv1DaSzM4/Lfrz105eeTZvQHwN+SOddup2dvHT9FSMFgoKZIOl+w6AgkgsWAEgefUES8JtAZ2cM+CHUueeCgm4ikdiR5mFugiQfgEFBJBMsAJAsGAn47ds8wdfUiEsnJ4CQTnguKOhHkvRWxQRJUPATAHjKbOuQtsECAFExBIDFoEDAr4ezRfyx3VNc3V3M6Q5/QkjnlFY0VLy/8kJOSkZZMCgWFNwMAI2MNg5pDSwAUGcYCfgd3D7JyG+AI91+TYR0Xnpu5eNZH519VlLRSDcvUwoAGwDgZ8CgIHoBFgDoRQoH/D5fEl4x9w1fuslmhNAL/goKGre2CemOmMkEgBUAcInBZiENhwUA6qBQwI8giJrZUwenrf9wRLAem0VnERSEEAWxmBTvORQfu+2Hu55iMUl3zoybIMkHPGSwaUhDYQGArAFgDQAsBAz4IaT2GAoKHgOAlQBQxmzrkCbBAkB3dQT8VgOAKY39MeCHUDfCoCBSFBYAuocFAJMB4GsAcKNzAGsLw5SD2ycZYsAPoe6Xml2ZP+ujszVlVRgURPLBAkC3jAJJwG8QnZ0x4IeQ+rp0Ozt5yborxm182kHBDJAEBf9ksFlIjWEBoBu8AGAjAEylszMG/BDSDAwGBT8GgEcMNg2pISwAtFtHwG8BANC5cWPADyEN1NoqbP5s+80kDAoiKlgAaCdmAn7fTnZxd7ZwZrZpCCFVKaloLJ+38nyuAkHBZpCsNohBQS2EBYB2UTzgZ26Y8ss3kwz8Bzh6MdoyhFC3Sc2uzH/3o7M15fSDgiUg6UbEoKAWwQJAe4wCyY1/MJ2duVz2kzVLwssx4IeQ9mIoKLgcAC4z2CzUTbAA0HwY8EMIyey5oGAvsZi0pXkYDApqASwANJeiAb/WkcEeCXu/GD/YzIRHJyeAENJgfwcFL6b5kwBGNA7RERRcAQDlzLYOqQIWAJpH0YAf2cPZIg4DfgghAEaDgpsAoInRxiGlwgJAcxAAMAUkC/a40zmAtblhys/bJhoEDHLCgB9C6B9Ssyvy3v3oj1oMCuoOLAA0w0iQzOCHAT+EkFL9FRQ0aeMLe9E8RDpIugUwKKjmsABQb30A4AvAgB9CSIUYDAp+BACpDDYNMQgLAPVkBQBrgX7ATzDU1yXul68nDcKAH0KIrtZWYfPSDVeSLt3OHgIABjQOgUFBNYYFgHoxAIAlALAKAMxo7E/2cLaIO7J7snNPFwsXZpuGENJVDAUFtwPAVwDQymjjEG1YAKgHhQN+Jsa8tB+/fA3CAt36M9kwhBDqkPigJGv2inNtNXUttFYUBQwKqhUsALrfUAD45q//lRuXwy5YszS8DAN+CCFVYSAomAwAnwDAHQabheSEBUD3UTTgV/v2xAFZWz4ZHcDhsGXKCdQ3trWd/DOtzN7KlDV2hKczV49F51WezJ48ram/Hv24ysvT2mh4oLsDU8fNe1pTVFrWUOfdy8bR2tLIiqnjvqi6prUmI7eixNHO1MzT3dJVWefpTG1Da+3jwtrK5hahUNAuEpsYczn21sZmLg5m9iwWwVJlW3KeVBfkFdTUikmSVMbxWWwWy9vD2prJeSnyCp4VllY0NvTvY+dkaW5gydRxX1Rd0/wsI7eq1MnR1NzDxZKxbreY5CIoLK6DYF8X0s3ZXKnXab5QJLoakVtU9axF/Mb4fs6mJjyuLPu1i8TtX31/9+7+Iwn9xGLShubpMSjYjbAAUD0rkMyl/SEAyPSD9gJBaIBb0oGvXhtgZsyTeYnet5eczo2Ie+IJf/2bEwQIP34/uOCj90LoVvBdamjkC8Le+Km88lnL3zdNPT1Ww9kf3mr1H+BId41yKK1oqJgw52hReVWz/1+/JQoPcr/76/bXg7hcNk/hhv9FKBQJZi8/H3s7Jj8E/gph2lkb3b/48wxHZwdTxgqZ55VXNlfsORyXdS0yz6C0stGTJMmublp8I0Pu44HedpXvT/M3GxPq4aOsguBxUW3RK3OO1dTWtw5UxvFf5OxoGn/xp+k97ayN6d5MoLCkrvSVOcfKq2tbfP/6LeHYUM97B756LYSjx+Iw1FQQCET8WZ+cjYuIKxgGf/WJO9iYJF385W0XRztT2t/xlLQymL7sNNQ1tP39ewO97eH0vmlgZEjnckFt+w/3cnb+EtODJKHj74YcFdwz98iuyTKvFdDUImxcuv7PhCsRucFALyjYDgC/gCT4XEFjf0QTFgCqwwWA/wLABqAZ8OvpZplwZMfrLj1cLBzl2fHTr66nHz7zsF9nn/3w5atPXxnVh9GnW+9R35XVNbb960bJIgh+ftSHwOPJf7MWisRC71Hf5Ta3CLxf/CzY3yXy9L43h9Nt74veXHQqMiqh4F/HM9Dn5GTdWuzO4bAZuxI/yCjLXbj2z+onT2uHAI1wlR6bVfzeW/6PV/13WBCT7WptE7b0Hf1dpUAgcmfqmLIwMealZ9xc7MVmEXL/XQgEIr7XqO+edvZaekyoZ8ShbyaFM9JIAJj8wW9RsclFYS/+vpEBNzvz1mIPPT35h93yhSLoO/JbaOO3/+szLw9r8vaJ2Yxery/eyi6Yv+qCe2efvTtlUMaXK8b862eNSnFZQ8ncFeeyU7MrwkGyMqm8mkDSHYpBQRVR6atEHUWA5DV/FgDsAho3f3MTXsaJ76Zm3z01N1Demz8AwJGzjzy7+mzpust05gDv0vXIvMrObv4AAGKS5C3beLmQznF/OJqY0NnNHwAgJqkotLisoYzOcV9UXtlcEZVQMKyzz1rbhL2/O5yQwMR52kViwXsrz98eN+tozydPa4cCvWQ1tIvEzt8fTQjrPWJ3cVxKUSYTbQMA+HJvVJKqb/4AAI1N/H5Hzz5IpLPvjp9jE7rqk74RnTesuqb5mWKtkyguqy+NTS7q9DvS3Croc+C3JFrfkY27Izq9+QMAZOVXE9HxBYxOs7t03eUu3yAeOfOwp7zHc3Ywdbp2ZObIPw68lWVhbvCARpOMAWAdAOQAwDzA+5PS4V+wcgUBwF0AOAkAPeTdmctlF2xZPjox49YS7+GB7rSm7xW2i8UkSXb5xN0maLdKSi3NonPszmz78R7lk09KehmtV/WxyUWdXxklWPEPikvoHPdFSWnFJUBxM465X6hwcrm1VdjsN+H7tMt3ckZSnUsefIGo5+vzf/M8cCwphonjJTwq7ba3g3cTi9qkb/VvcSlFVBkFvfupZUU0m/QP8Q9KSoHi2nkv8amQznEfZVAPk1+/K4KxAuB+amlWm6C9y/yMmCT120Ukre964CBn7/Triwbt3zQhhsfVy6VxCGcA+AEAEgAgnE4bkGywAFCO3iC56ccCQLC8OxMEUTtj4sCY7DtLnWZNHUx3Xm4AACDFpNSL0ZJ1l+sUOUeH/MIayMytsqBsj6S/T258YTvlDam1TcjIkKK2tnbK4wgFIoVujCIxKQp6/cfsqmfNvtK3lhtn/e47gb+cSo5T9EDt7Yr9ORXh5GBC67rULqRuM1Pfkda2djHV53whra84sNjUf+VZj6vscgueFdA6+AsWr7tcK20bsUhM7w/yl9de6hucE7nUfeHMIXdYBFFF4xB+IBklcAMAcHizEmABwCwrANgKkkQrnXS/YFiA2730G4vY21a/FMzjsBkLLVEpKK4dkppdma/ocb77NR5IkqS8itlYGVUreh5NtmjNpWgl3fw7sNd8fWtAZm7VYyWeQ2kIgqj974yAvt3dju7Qw5mydgaSBGLBmksKv8VIza7MLyiuDVT0OLLgsFmczxYNH5F1Zwnv5fBeN4Fe3/5oAEgByVsB2gFL9G9YADCDCwBLASAfAFaC/Ol+sqebZfzdU+9Vndz7Roi5qb6qp+9lLVn3p0LTdJaUN8Af1zKkbmeoz6H1elcbPC6qLTp/IytI2echAYymLjzZqOzzMI0goHH752PzFBkFoMlMjKVfNtKzK4MKiuoU6u7662ddpdd+Y0Ou6S/bJo5OOD//Wb/etrdBMkWwPPRAkgvIA4D1QG+0AXoBLhCjmI4Z/L4CGn38AACmJryMH7a8SgwPdFdJRd6V7MfVQTmPqwt797R2o7P/t7/GgZD6zajOW7Lu8hMAkGmsOEEQNWbG+sUmJtxWHoctqmtoM2hs5pvxBaIeIMPonZq6loGXbmcnTxjZRylvG5zsTBNsrYz4TB3PzcVctHpBaG9nBzOFurx0AGfphst5539624nOzo8LawqzH1d327XG2cHU+cbRd53jkosz5q48J6itb5V3RsGOoOBckMyj8hPIX0ygv2ABQF8QSIasyN3HDwDA5bAK1y0bUTFriu8QQj0GY7KXbLjy9Oqhd+QuACqqm+HkpXRltElr8AXtbSnppdIudqSHm2Xs5k9Gm4YEuPZls4h/zQVQWtFQ8eNvydk/nkjqIxaTlK9Dt+yJFkwY2Ydeg0nqImPT8lG8sWGeQ+gdHCki8VFJUGlFQwWd+QYWrP3zKQDQKvKZFOTr7J1+YxGcu5Z178MvrtjyBe3yzkfSERR8HyQzCkYy3kgdgF0A8lM44Dd94sCY7IhljrOnqs3NHwAAHmWWBxUU15bKu9/ew/HAFyiUF9J6MfeLckkSKLt2ls0dejf61NzgsEC3/l2Ng3e0M7VbtzQ8LPPWYiMTY14a1fEKimsHCgQixp7SkdrgfbjpqtxDPovK6kseZZZ365vGF00c6xWSE7HUfYEkKEgnH+QPABEgCQp2OtcJ6hoWALKzBEnA7xHQDfj5u97NuLGI9bUKA35y4izbeDVPnh1q6lrhxAWcxVOayLgCytS1nbVR0or5w0JlPZ6JEc848uQcW6AOVRncu/80R9ZjIs0RHV8YIO+8BovXXc4HerOPKhVHj8X5fNHwEdm3l3L+M7zXDQCgkxN6Pihoy2gDtRgWANK9GPCTdxw72cPFIi769NzKk/umDTMz1aczC6DKJDwoHlJW0Vgp6/bfH0uE5haBMpukFUrKGyn7KSe93K9F3mPaWxvbennYJFNtk5JWVi/vcZFGMFr+5XWZK++K6qbKhAfFap2vMDLimP389cQxcefer+7X2/YWyN+3zwFJUDAfJEFBfYabqHWwAOhaxwx+mSCZwc9c3gOYGvMyju6enHXvzHtBHq6WjC10omT6H2+W7fViQxMfDp+hM+GX7mmnnl4ATE24tH4Wh/o6U/a9FBTXYd+MlroeledXX98mU4H34cYrmaAhyXlXR3PnG0ffHXXmhzczzc1wRkFlwr+YzgUCQDRI+vrlnhKTy2EVbP5kdHzmrSXeI4f21LgxzRFxBQHVNS010rb78UQSNDRhF7MsLC0MKNMev19IpRXIDfBxMqb63NrKCH/GtRRJgsmq7TdTpG1XU9f6LDK+wE8VbWLS0MEu/TJuLBq094sJd2nOKOgCki6BeABgbK0QbYIXh3/qBf8P+IXIuzNBELVvv+ZzLztimdPsNwYHqlPAT06GK7def0S1QXOLAA6eknrtYY4YlLIUraoE+DhRPn0VltQHTVt4MrK1Vdgsz3FfDu/lzWYRna6DQBDQOO9tP1pTSCPNcP561sDGJj7ld+aTLddSSRIoC0V1Nmls32E5EUvdF8wYcovAoCCjsACQ6Aj4dczgJ++tWzhkoFPco6sLWNs/GxuipgE/uVyNzPWta2hr6Orzg6dSoKYOF+yS1Uthnp4gZRrk6MTC4Z7hu/lzVpyLKK9slmlZVH2ensHBb16vIgh48d+qbe3i4an21sYYiPoLSRAMFZGk2hSjJElarN91J6mrzxua+A3XInMHq7JNysDRY3E+XzJ8VMaNRZyRwT3vAAYFGaHrBYCiAT9wcTRLjjo1t+Lcj28HWVkYqnXATx4kCaZrtt/uNGDGF7TDz7/fV3WTNJqluYGlk50pZWAPAIAkScurEbnhvhP22fQd+W3qx5uuRmblVz2h2md0SE+f+xcXtI4Y2iPSyc40IcDHMerKoXeK588YQmuOCqRZfr+U5t3Gb++0Gl+17UYKSdJaflwtmZnqmx3dNXlE3Ll5Vb16WEcDyP1msCMomA2Sa75OBwV1eSKgV0AS7pO7jx8AwMSYl/H95ldgxNAeypzXvVudvZbh8+XK0c3GRtx/LBl85OxDqKiW6001AoDd68YZTVnwmxhkK7xZ9U38AScupMKJC6nA47Ifh/i7F82f7mcV4ufqzWIR/ziGva2R3bHdU1Q2T/qitX9yDXh6UguazhAsgnRxMGvevHyU48C+9l0uVY1kIxaTNlv2REZt/HhU2PO/39wiaD53LUsrF9FxdTRzifx9tkvs/aK0uSvPt9c1yD2joDlI3vouBIDPAeAIyF9MaDxdLAACAWA7AHS6nrc0emxW6cr/hpYueGeIvwb38cuEJEnLjd/eidy2auzfARphuxh+ON7lG0dEIdjfpV94kHtkRFyB3IEkvkDU83ZMfs/bMfnAYhEVg/ra56xcEGoRGuDWLRf45hZBX0WGf1Y9a4b/vHuE//mS4TEL8E2Fwg6eSum1Zkm4gMNh/z3Of8PuO0kkSWp1+G2on0v/jJuL4Pj5RzGrt91wEgjF8s5y6AIAhwBgEUhmFIxivJFqTJe6AFwB4DBIAn5y3/wJgqh7+1Wfu3lRy6wXztSqmz9lX9rx86l92/jtf2/z24VUKCnvMhqApDiya8owDzfLWEWOIRaTdsnpZaHTFp7s33vE7gwmlv99UXOrUBWhMd7m7yIHlFY0yJR3QF0TiUmHb36Kje/4b76gve34+VRpAVCtGcLz9ms+wXmRHzp8QD8oGACS6YQvAoDOvJXShQKgI+CXAwDvAI2AX4CPU9zDqwtg++djh3Gfq7C1BOVwP7GYtN26PzoBAEAkJmH/sUTKg5mZ6Ovsan+yYLMIdtTJuUEvh/eKAAZeOTY1C7w///pWUL8xex4+yChnbNa/+qY2a6aORYUkweTX0w9wtkIZGHD1KH9W9x+Nd28XidsBAL7cG50gba0IAJBrJkF1p6fH4q5dMnxU+o1FeiOGut8GekHBCQCQAToSFNTmAqAj7JEFdAN+DmbJUSfnlJ//6e0gawtDuScC0gRcDpuvz6MeY/vz78meQqFIcOZKOhQUUc5oC8MD3RRaqlQXEAQQv2ybGP7TV6890OdxGLn51da3Dhw364jrgWNJMUwcTywiO12LQBme1bbgam4yCAtyp3xTIhSKXfYfTohvbxcLfj6Z7EG1LY/LfszlsKnfABCa2Sdubqpvfmz31JGxf7xf2auHZRTQDwp23Du0NiiorQXAKyCZwe8HAJB7bXETY17G0Z2T0+PPz/P1dLeSaflWjUUALJsbXEW1iUgkdtz5S1z8/iPUT/9O9qYwZLCzVj1VKNO4Eb0H50Yu9fj0v6H3jA25ci/u0gn99bvvDP3oiysKr4ymr89pYqA9MvlPeC+tLK6ZNmVcv956bFYx1TY7fo5x+PrA3XiRSEy5XPDH74eUyf0uVMO4OZm7Rv4+N+z0/mlpZia8hzQOYQGSt8fZADAT5H97rPa0rQAYApIQxwUAoKyAO6PHZpV+tigsIevWkr4jpzUEOwAAIABJREFUQ3rqzIQRC2cOGcLlsAqotvn+aMLA7MfUXWuL3g0EPTZbI58augubRbCXzA4KyYlY2vf0vjfTRwztESnt30IK4reLaWE/nrivUM7A0own83oQinB1MksYPcxjoCrOpen02Cz23Gm+j6m24QtEPfcciqdcWpfDYRV9MCNArVYFVKZgP9cBmbeW+Hy9+qV7XA6rkMYhXEESFIwHAJkX7NIE2lIAdAT84oDGPxBBEHVvveYTnRu51HrhzMAhBKF9lR4VNovQ+++MIZRPFm38dsqlbG2tjGDaBK0ccaQywf4u/Y7tnjK84N7H7teOvJs/dXy/CGMjbjrIvygKsX7XHa/qmlap0zl3jaXsQq4tNMAtMuK3OQOUfB6tsmph2BAWi6DsCiBJsKf6fOHMwAI9NkvXRoAR0ycODMmL/NDhg+kBNxUICkaBFgUFNf1LYAGSPpplQKOPHyQBv6Sfv57oZW1hqFWVnbw+fj9kyJ7DCSXSXh12ZcE7Q0Cfp8Svk5RSVSxmZnY2kZj6MARL8Zo5Ob0kp6isqXFAH1vbni4WnXYxDehj67F73TiP3esAyiubKw6evp9z6s8M/fKqRh+Q4btOkqTF8s1XIw5+Mylc4QZ3Yv3S8NiRoR60FrhiEQQ425nacrlsZoeoSZnpT9QuYuQ7wtR3jQ4uh60//bWB8Uf+eEBrzgc2m1X64ZyhOvP0/yI9PRZ37dLw0UtmB9UuXHPx9p3YghCQ/94xAQDGAsBBkMwhQNmFqs40tQDgAMBsANgENPr4AQBcHMzuH901xaZXD8uhjLZMQ+npsbizpwzK/+n3ZLkLAAszA5g+0UcZzfqbiQGP8qJbXN4gZOI8RSX1lMEoIwMO7cBaYUld6cszDz+rb+R3PPWS/fvY3j37/VuDX5xs6Xn2tkZ2qxaE2a1aEAY1da01W/dHxR0/n+otFpOU3/2b9/K9xGJS/OKkQUxwc7Ew9HS1VKt8jJEBh/o7UtHAyLC3wtJ6yu+aqRH1d1VR65eF+x879/CZmCSt5N137hu+eRwO21EZ7dIk5qb6Fsd2Tx1ZWFJXOPPDM4W5BTWhIF8ff0dQcCoAfAUAu4HeqINupYldAK/A/4dpyB/wM+JmHtn5elr8+Xl+vXpYujLeOg322eLhQ1gsolze/T6Y7g9GhsodHWlrY0z5w5meU8lIkjwjr5Jyvn57Ke3oSrtI3D7izV+bn7v5AwAQadmVw15977jMS55amhtYbls1dnjmrcUG7s4WlOP/RWLS/lFWRR6d9moiO2tjyhtvelYVI0sjZ+ZSf9fsbUyU2oVoYMAxmjjWO03e/VgsourTBaEBymiTpnJzMneLPDk37NS+aalmpjw6Sw9rdFBQkwqAjv6XC0Cj/0WPzSpbvSgsIev2Uq9RIR7YWd0JHldP/81XB2TLs4+pMQ/enaz8tUYGe9tTrqYXm1xMq+viRZHxhZRPR779HWgNCTpwIimhjS/sNJyVlV8VklfwTK5wkokRzzjy5Bw/fR6HcghndHyBxr6elNfAfvaUr3Ij458wMlVybHIR5ZuPwf0dDJk4D5UtK0YNJgiok2efN18dkKHP06P8OdJVIf6uPpk3lwz8+rOxdzkc1lMah+gICtLKoXUXTSgAOgJ+tBKYBEHUvfnqgOjciKWWi3Qw4CevDctG+BMEIfNQvvff8gNTEzrxC/mEBbpRTvHZxhd63k18mq7IOeJSijJb24S9qbYZHtiD1lujpIcllPPmRiYUlsp7TI4eizNhZG/KeRcKy+oZeerVBMOD3CkzCU0tAq+k1NIsRc4RFV+QyheIqNYPIUOHUH9XmWBqzDN9ObyXzE+sBEHUrFsS7q/MNmkBYvprPsPyIz60+2CG/w2aQcGOkWgXgcZINFVT5wLg+VcrtGbw8x/gGPPg8n/JHZ+/HMrj6Sn/LqUFjAy5RhNf8kqVZVtjQy7Mnean7CYBAICjnakdj8umHAI1f/WFdrGYpNUVQJJAvrfyPGUfMZfLfuLsYOpA5/jmpvqU39+khyW0+qetrYwof4b5bcwE3zSBp6ulC4fNKqLYhJjzyR+tJElvghuxmBTPX3WBcht9HjtfVUswf71qrA8BINOqXBNf8npkYszrMmeC/k+Pw+KtXTJiTNr1hazwoB63gN6UyRNAgbloVEUdCwCFZ2FydjC9H3VyTumFn6cH21gZWTDdQG23efloXxaLkDoRzMzJg8DcVHWTZL0U1ovq4g619a0D3//0PK3FPOavuhBVU0e9othLoZ50xhADAICnuyVl4PZaVL4jnRtTQkoRZWFhbWWojj/jShMe3DOf6vPq2pbBC9deojVR0syP/oiub+JTDlv8z4jelMNpmWRpbmAZPrSH1JW5CAIatywfrfx+Oi1jYWZgefzbKaPi/ni/zNPdKhIUX3pY7R5C1e3i8HzAT+4q2tiIm3Fkx+TUhPPz/TzdrZT+Gk5bmZvqm44N86S82bLZBMyfrto3imsWh/UCAMpX6VcicofPW3UhQtabKUkCuWDNpYhLt7PDpGwqXL0gjHKCFSovhXpSvp5u4wt7f/FdZLQ8x8wreFaYnF5G+QpmUD8HnXrqW7N4eE8AEFFtc+5a5vDFay/L9R2Zs+JcxO2YfGnfEf7qhcOlLcDDqB1rXu4LUv68oQFuaWam+mYqapLWcXUyd486OWf4yb3TUs2MFZpRMAfULCioLgVAx0pMtAJ+bDarbPWC4XHZt5f2HTWsJ04swoCtq8a4UK146NvPAWwsVXtvcXYwc/TpYxsvZTPi0q3s8EHj9qVIWxznYWZ5nu/4fcnnrmWGg5QfSp8+tnHuLua0g4ae7lZuUl5Pw/dHE0LmrjwX0doqlPpa98/b2Skj3vpVDwCoAmft4YHutIsWTeTpbunap6e1tNURiTNX08N9x++7n5pNPUoiOb0kZ+DLex9cjcgNBynfEd/+jvFOdiaUk/Awzc7a2NbB1oTqe0V+t+GVPiprkBYbFuDqk3l7ic+2VWOjOWyFgoK0VqRVhu6eB8AFADYDwAygURURBDS/Nsbr4c41//Hj8fRo9c2iztlYGBmPDvEgb9zN/9e/C4tFwLcbJnRHs+DXnZP7+I3f30CSQDkzYdWzZt9xs46IzU0MHv1nhGet/wBHA3tbE4PyysbWpNTS1quReea19a0DQIYimCCg4dedkxW+iI4f3Sf/3LVMqgQ5+8qd3HDPiF2Nro5mcWPDegk83S15TnYmBi1tQlFhaX1rTFKxMOb+U4c2vlDqK10nO9NkMxPeEEXb3ZmU9PIGczN9JtYvAAAADxcLW2tLI7nHtXfmyM7XewS+dqCZBKCsUCuqm/3HvnNYZGFm8PDl4Z51Hd+RsorGlsRHJa3XIvMt6xpb+4NM3xGi7pevJ3oz0X55ndo7zWzY1J/E0Ek7vXvZFtpYGbirvlVai5gxySd02vh+/DW77tw+cibFjyRB3rcrgQAQDQCXQDKJHWW3lTJ1VwFgDgCfAsBSoLfSktB/gGPiz9sm9rWxMgpmtmmow8HtrxNvLPydjLn/9O8iQJ+nB/s2TQA3p+55o2hvbWy78oPQe1v3R4fIsDmrrrHV58SFVDhxQaZcY6c+njfskb21scIV+8YPR/mcv55ZL+2CQZJgUlhSH3TghNTuXUrrPgxX2s/3twdjQ789qNByAy8ie7tbxvzx09t9LUwNFMrtODuYOS6aFRj93a/xsowaYtfWtw5U9Dvy2aLQdFsrI1m+k4zr6WZhsXPtf4o++uKqLUmSf/cz93K3LLh+5F3sClUCDpfN27pi9MiV80NqFqy5eDMyrjAUFJtR8DMAoDPqQCGqLgA6ZvD7AmiutWxnY/zo6M7Xzfr1tsMbv5KxWACn908jKqqbyJt3HxOOdiYwYmiP7m4WLJkdFHI9Ki86Ob1M6eNtB3rbR380dygj57G2NLCcPdU38peTycxOgdsJO2ujpAkj+2jSsC8ip6AmOGTyT2lp1xaZKTp74aoFYaG37j2+m5FbpfRXrQE+jlEL3gmUlg9QqmkT+rtMm9AfLkfkFBUW1wsmje3rYG9j7N6dbdIFFmYGlie+fWN0zpPqgnc/+qO0sKRuKNCbUXAKAGwDgF1Ab9QBLarMAIwGgBSgH/DLPLTj9Ucpf/7Xp19vO6xqVcjO2piYPtFHLW7+Hc7/PD3YzclMWl+vQpwdTeMv/jyd0amiv/h4VJiroxmjj84vYrGI6ku/zFCraXplVVff1v+3C6nU607L6MqhmYFOdiaMHKsr7s4WcWcPvN0tT/6dGRfe2+W/MwI87G2MlT4ZEfq/3j2s3WP/eD/4971vPDShFxS0BElQMBUk0wurJCioigLAHwAiAOAGAMi9xC6bzSr76L3gxKxbS7zGDPNQ7oTzWkjaxEeE/ENbKLGkfG2Z+lazWQQ7+vR7/j59bOVKzsuqfx/buzFn3vdjetU0ggDi5rFZPpbmBnSmHZXl+PUnvpta7mRvqtCsdywWs98LeUTEF7QycRyOHosT88e8QV4eNveYON6LBns7REefnhvAZhFsZRz/RVShXFrHk/azT6pPWl1ThAa4Dcq6tcRn44cj79EMCvYCgJMgCQoqvbBUZgHgApKn/XgAkPuVJ0FA86SXvO7lRS61+GReSACLxfTXXzdwOGwuQRBdLgtrYsirZ/J87s4WxlSfuzkzlx3QY7P0rh55N3TZ3KHRsk6IIoPmxbMCo68feXeYspZMNTbiGiVd/KCPdy+bu0wel8thFVz85e2K0AA3hae6trcxpRxapkz21tSTG8mDo8fi3D4xK2T+9IAoAGhh4pgEQPNHc4Pv/vnrjFAmb/521pQ/OmBva8LUqQAAwMiQ29DVZwRB1HC5bLUbt64JCAKI997yC8mLWmb77pTBtwgC6FxjO4KCJwGAauZJhSijADAGgPUgGfM4j8Y5hH79He+l/Plf/t5Nr4TwuHqqm2lGS4UGuHWZbvrgHX9GLoodhvq5eOnzOJ0OvyMAmhfODGR8WNqK+cNC48/Pb+jtbhkDAHQXBRJ7ulnGJJyfV79qQZjSswX6PD2Dm8dmDdu+emw8j8tWNAXcGh7kHpl5c4mNbz8nyqmMZbV8frATSJlzQRkIAhrmzxjCyJ/heeuWhofFnH2vpoerRSzQ/46I+vS0vpdw8YPGT+aHMJ4teHWMFxgacDr9rF9vW+jfm9kJBue95d9l0Rwe5E4/EYkAAIDDYet/uWL0qLTri9rDAt1vgPx9+wRIugMyQbLaoDnTbWTyqZqJgN/DQ9+8bu7jhX38TGrjt7f6Tfg+p7a+deDzv+/bzyH60sEZjN/sHmSU57wy56ipSEw+Pya6df3SESnzpvsrNbyZnV9dsHbH7cJ79596icWk1NfgLBZREeznmrXxoxGuXh423RJyEItJ8fHzjxL3Ho4nC0vqfYB6bP/f9HnsvP+E9y5eszTcWxnTz278NjLq+6MJQ0Hys60KLZuWj3o0Z6pvkDJPkp5b+XjdN7eL4h4U9xWLSal/bywWUTHM3y1r48cj3Hr3sHZXZtvOXMmATzZfA77g/0s4ONiawLHdU8DLw5rx87387pHoR5nl/7gGWJobPki6OL8PLhzErOz86oJZn9AKCnaoAYaDgkwVAKNB0ii5+/gBAIwNuFl7N03gjwn1GCh9a0SHWEyK9xyKj714K5vkcfXE77/tb/Ta6D5Km8i/vqGtfs03t1NSsys4TvZm7WsWh7n18VDuxfN5JAlkWk5F/rWIvPIHmRWi6tpmVmMjX8/EiNNuZWkkHuztwB4T5mHv42XvoU4LRAnbxcLY+0XZMclFtWnZleLauhZWQzNfT4/NEpsYcUUebpbiwf0c9F8K7dXD3taIkdXtqDzIKM/Zui+6rKi0XmnrPbPYBPRwseCvXRLe09NddUt0kySQDzPL8m7cfVz+IL1M/KymmdXYLNQzMeG1W1sYiX372bPHhHo4DPCyU+miLnkFNfDbxVSoqG6CPj2tYebkQWBqrLy38eeuZd7/6ffkZr6gnfXaGC9iwTtDhio6CgN1LSq+4MH7q86zGpsEdDNtuSAZNngaFMxwKXrh8weA7UCjjx8AgM0iyhbMHJK38oPQEPzCIYQQ0gUkCeQvp5LjNu684ywUiemO2IkDgE8AgHbIlW4B4AwAawDgPaCRIyAAmseP7JP07YZxQ/A1E0IIIV0kFIoEG3ZHxB08lTxI2uymXSBB8ibgUwCgXC21M/IWAMYgqThWAACdG3f7YG+H2F+2T/SyszZW2yUSEUIIIVWpqWutWbL+SurtmPyhAECnu00AAN8DwDoAqJN1J1kLAD0AmAMAGwGAVr+jtYVh8pFdk00H9rWXe7EfhBBCSNtl51cXzFl+ruxJcS3dCcjkCgrKUgCMBoCdAEBrbLGRITdzz4bx/LHDPSnXWkcIIYQQQHRiYdq8lefJ+iY+3dVtcwDgcwA4RbURVQHgB5KAXzids3cE/FZ8EBqsqpmyEEIIIW3AYFDwYwCI6ezDzgoAhQJ+ANA8AQN+CCGEkMIYDAquBIAnz3/wfAFgCgCrQLJEL60bt4kRN33LijGtzo6mlOtwI4QQQkh2xaUNzau33TBobBbQmm8HAFpBMqPglwDQAPD/AmACAPwCAJjMRwghhLRXFUhC/ZcIABgJkpX6cCIehBBCSPuJAWAUGwAOAYB797YFIYQQQipCAEAPAgCaAAD77BFCCCHd0cgCgGfd3QqEEEIIqVQNCwCOdXcrEEIIIaRSxwiQDPm7DDQn/EEIIYSQRrkNABM6hgGyAGAaSJb1tZRh50AA6HLdbhsroxQzE16bwk1ECCGEdFx9I1+/6lnzYIpNngJAvAyHqgGACAA4CQBiussBHweAt7r68PqRmWljQj1prR2AEEIIof+7EZ2X9tI7h6nuqScA4G15j4tj/xFCCCEdhAUAQgghpIOwAEAIIYR0EBYACCGEkA7CAgAhhBDSQVgAIIQQQjoICwCEEEJIB2EBgBBCCOkgLAAQQgghHYQFAEIIIaSD9Lq7AequsYnf/CirouhxUU1jUUkDRCcWmggEInafnlbNA70d+E4OJrwBve3s3JzNHbq7rUg+AqEIcp88g+LyBqiqaRFeupldXFHd1O7sYNoWOMip2dHOlOfdy9aql7ulE5vNYnd3e5HsRCKxKLegpiQjt/JZaUUTP//ps77Vz1rMjI25LV49rDNtbYzBy8PavF9vWxcuh83t7vYi+RQW15U9yqqoLK1obEvJKOPlPn5mxOWyRWFD3BqdHU2hp4ulySBvexcjQ65Rd7dVnWEB8ByxmBTHpRTnHDqTUnH5do5hWVWTk0gkdgQArxe3vR37+B//TRDQZGzEexowwLHqncmDDCaN7etlZqJvqqq2I+lynzyDO7FP4E7sE0hKLYEnRXUgEok7PuYAQI+O/zj6x8Pnd+Ub6HMe9+9tUz7tlQHst1718XS0M7FVYdORFKUVjRXHzz/M/+1Smigjp8qhtU3oApIFy15ctMwQAPye++92Lpdd2MPFsmTyf7xFMyb6uPb1tHFTWcORVHWNbQ1nr2RmHf3jQWvSo1Lbpha+K0mCAwD866HramTuP/5bj80qdbA1KZkwunfLO68Ptg8c6NSLxSLwzfdfcDEgAEhJL8v/cm9U8R/XMj3bRWInhg4rsrU2erh09tDWZXOGDjY04BgydFwkh5LyBjh9OR0OnkqBh5nljB3X2IibOWvK4Ko1i8P721obybKCJmJYXWNbw77DCam7D8YaVFY3Dwb617N/4HHZj18d7VW0ecXonr3crVyYOCaSD1/Qzj9+PvXRlr2R7XkFNf4gKdAVxmYRFcMC3LO3rBhtG+zn8q8HO3WlrMWAdLYAIEmSPHz2YdKyjVf06+pbByjzXARB1Eyd0O/h/i9eGWRpbmChzHMhiaRHJbBlbxScv5EFYjGpzFO1Bfu6JBzeObmnh5ulszJPhCTyCmqKZ3505nFsctEQANBX4qnEPVwsEg7vnGw2zN+1rxLPg/7yrLal9oPPLz48czljIEmSSr1WWpgZPPp2/TjBjEkD/ZV5HiZgAcCgk5fSkucsP2fU3Croo8rzEgQ0TnzJO+norsmB+EZAOdKyK2H5lmv/ehWoAkLffg5xl36d4eVgY2Kj6pPrgtKKxsrxs4/mPMgoCwSGnghl5WRvmnjx5+mWg/s5eKjyvLqiuUXQ/NaS04mXbmX5kyQYq/LcxkbczCM7JrdNHNt3sCrPKw9cDpgBJeWNFQPG7r03bdFJX1Xf/AEASBJM/riWMcK0/6aGLXuj7qn6/NqspVUI63fdAb8J+7vj5g8AwElOLwt1GvI1d/G6P6NEIrGoOxqhjcRiUrxlb9Q956Dteg8yyoaBim/+AAAl5Q0BvuP3u4ZPOxjV0MRvUvX5tdnBUymJ5j5bai/ezApX9c0fAKCpWdB30vwTg12HfpNYUFxXqurzdyedKQAOnEiKcRm6nZeWXRHS3W0RiUj7z76+GTJg7J6YxiZ+c3e3R9Mlp5WBz8t7YcOuOyAQdu99lyTBbM+h+DCrQVtz8gueMRc60FGFJXWl1oO3pn329c0QkiS7O2vBiYx/EmY16Mv6OzFPsru5LRqvsZnf1G/0d/fmLP8joL1d3O3dZ0Vl9QE9Q3eY7D0cl9jdbVEVrS8ABMJ2fujUnyPmr7oQTJKkeXe353lp2ZXBNr5bK+4/Ks3r7rZoqm8PxsHQSQcgv7Cmu5vyD/WNbX17j/iWc/zco6TuboumOnLmQWKPYTt5tfWtPt3dlue1t4udRr590P3jL65GdXdbNFXCw5Jsm8FbqzLyqrr9gex5JAkmi9Ze9h/51sFIYbtY2N3tUTatLgAamvhNLkO/Sb+bWBhO9xjmFpY1JmZmdVTbuLj3KGWxWLQePfkCUc+A1763O3s1I4VeC3WTWEzCgs8vwdINl2k/9dvYWJDOLs4NVNs4ubiW6nE4AlptJEmr6ctOD/506w28Uchp+ZfXomZ+fNaXJEkrOvvrcTgCz149KKtCNzfnFkMjI7pv4Hg7fo4JG/7GL1FiMSmWvjnqcOrP9OSgiT848QWiHtK3/jcWiyVy9/Aoo9rGxMysztzCspZeC4G4E/tkuOvQbx5q+xtarS0AKqqbqp0Cv35aWd3sK89+BEGIx70+JeX0rbtR2bVthQ9KnlmOfHk85RP6rZTM1vyG9paY3KdJqzZvi7awtJLri0eSYDL5g9+89xyKi5NnP13FF7TDm4tPwv6jCXLv+8oro/inLp15nFlVV5hYWCNe+vlGysLr6KXrhXn1AnFKUdWj7QcORrj29CiR85Tsr76PDntz0ckIuRuro95YeDJi+w/3wgBArsmX3Dw8i7858OudlKKqR3n1AvGvZ85VU22/bvPa6oyqJv30yoacn05diBg8JChH3rZGJRSEeY/+Nk4gFNEqEnXN7oNxMW8s/L2/vH39llbWtVt3fpWXkpta/6ShhXUrIdaaavuRL4/Pe1DyzCKntq3g5M2oqLGvTXpAEIRchVp5VaO/U9D2gsrqZvV6vcggrSwA6hrbGj1Cdz1rahZ4y7qPsalp/bptuy7n1LXl7Tt6arD/0JAwHo8n84QgBIswcXRy8Z//4fLQlOJqw5vJGVF+gcHpcjSbt3jd5YADx+/HyrGPzhGJxDB96Wk49afsf7XGxgawacvKivTS8szvfr/JCxj5ek8DIzM3kP0Go29hZe0zZcas8Ki0PIf7hZX333hndiJBEDKPL/z9Ulr49KWn78jcaB315uKTd079mRYuxy7kmAmv3o3NLYqITM21nzzj3REWVtY+IPvwQLaRsUnv0eNfCf8jIrZ3RnVTxpJVayLleeuT/fhZsPeobxPFYhKDnxQOHE9MXLbhciAAyDzzot8Qv+zIhDsFyYUlFm/OX+Fp4dTfjGTxZB69xuXx3IcEh4b9cOLsoJw6fuE3B369Y25hSfnW73mNTfx+PcN2VtQ3tNXLuo8m0boCoI0vbPUI3ZUva8pfT0+vbfuBgzfSyurYsxctHcfhcHsz0Ayep1ffsDN37vWLzy9O9OjtJWsfP3v+6vODLt/JecRAG7TSwjV/wpkrGTJtSxAEbNy0ovJRWUPljGVb7YzM7ZgYy82ysrHx2/bDLwEZVY3ZYaNfkrmP//j5R+Frtt+KZqANWunTrTeifr+YNkLW7YePeTkxs7op58eT54c5ODmHAwMzmxoaGnl/tGbj8Oya1mdzFi2LBACZirz8p7UhoW/8clfR82ur8zeyUuavvjgAZCy6vby9Cx49Sa87E5HUx61/uDuwFJ+tmcPh9Jg8490RKUXVxNZ9P97U09Pjy7Jfc4ugb68Rux/zBe0yba9JtK4A8Bv/fXJNXcsgWbYNHDb8flplY+6UGbPGAEEoZfiJnYNTwK0HmU77j5+5zeXxZAmVGEyYc8w1t+BZsTLao8m2H7gHPxyXLaA7bJhv+4OCgqyZH31ly2LrKWXaXgNDI6/DF675XU9Ku2tpZS1Ltw+xaU9k8Jkr6cnKaI8mO/ln2v2vvo+WKRBmZm5Rcz464eqh81f8DAyNlDKcl81mO6zdtnN4UkF5vLuHZ6Es+8QkFQ5fuOZipDLao8my8qsLJ8077gEyvJXR43AEvx47kHU1IcXd1M5bKaFtgkWYvDnrvdHplY0Fw0aNeSDLPlXPmgcHvnZA60YHaFUB8PnXN6NkTJWKd/x85Nbv1yMG6+vrK3UWwL8Y/Gfi6yOTn1bl2js6Sb2xkyRp7jfh+3rsV/y/mPtPYfW2mzJt+9naZdVHriUJzWxcVTHVJ9Hbu9+wxCdlbb6BQ2V5c8N+Y+FJ59KKxkqlt0xDlJQ1Vry1+JRMXTJ+QSEPk4uqBAP9Al4GFVy/rG3tgu48yrF+e848mZ7u9x1JHHon9rE8XX9ajS8QtQW8+n0LSYLUdVGcXV1LMooei8Mnve/FxBO/NDx9/T5HL1732f7DwVsAIDUf8DCzfNjGbyOqPiWUAAAgAElEQVS16i2P1hQAyWlluZv3RgVI205PT49/OS7l5utvzRgFKv7zG5uYeMfkPGX7Bg7NlLZtYxO/3/jZRzEPAAB1DW3w1uJTIGyX3sV68Oi+J+9/utOSIAgDFTTtb2w9PYezd2J6vjnrPakTPInFpO2gcfuKSZJU6hzFmkAsJsWDxu0tFYtJylAXAMCkt9+JPHPrbg82m22virZ1IAjCaMueH4bu+OnQLRk2546dedi0vrFN5n5mbfbSjEPxTc0CqV1vQ4YG5d1LfWTPNXVW5tTOnWFNeWfWqKsJj6JkyX2s23Fr8KOsinxVNEwVtKIAIEmSHD3911YAoLzoc3m8trjcojRvn0Evqahp/8JisRzO3L7nFP7Syw+lbXvzbv6wqPhCqcWCtlu97SY8LZWewbl4+2reiNf/2wO673ttvHXfj0FLP1snddhf1bNmX217mqBj3Y7b96prW6ROwfrhmg2RO386PAwI6U+SSsJ+/e2Zo479eVNqkFMoFLu8Ove4zg/rvR2TnxaVUBAqbbsJk17NPX0jwoPkmHXbktte/QeEx2QXPuRwuW1SNjUa8ebBRm0p3rWiAFi/885daZOFEAQhuhL3IN7azt6PajtVIAjC9OAfl128+g+QlmZjj59zBHR5Wtn7qaVw4IT0nN2RkwefDAga66mCJknD/vCz9SFvvjtX6s19w647/bR5iJE0z2pba7bsjeonbbuJb86IWbpqbQjIOSxQGUJGjBrx1f6fr0nbLiqhYFjM/aIsVbRJHYlEYtGrc0/ogZR7jPeA/vn7jpzwEMuR7FcWW3uHgJvJGYkEQbRTbVdT1zLoy/3RWjGVu8YXAM0tguZNeyKlvmL65cylWx59vIarok2yIAjC8tK9+8bWtnaUY5WbmgV9N++J1Nn5AZasvwwiEXX33PqNn1SFTpilTmu4s7fu/2ngoIBAyr5gkiQtpy74PVVVjVI3E+cdTxVLmd7Xx9c/ddfBI/2AgYQ/U6a9O2fMjHkLpL3lYb8y95i0p0mttXbH7XvNrQLKDI6NrW315egoVzHLUG3uQ249PUL3nzgttatnzfZbvVtb21tU0SZlUpu/eLqWb7mWJK3/8M3Z7yWNeHlct73274oeh+N6LeFhAQBQPuFv3hPl0q6DbwFuxzyGmPtPKbcZPWao4N2Pt5mA+n2XTU7diDIzNjGh7AuOSigILClv0LlAYFllY8XdxMIhVNsYm5rWn42ItQISzFTVLhmxNu3a69fLux9lX3BNXcugP+/kyJQy1yaidnH79gN3Xam2IQhCfCchWh+4Fipf2Emal199/aWpM2ZRPnSJxaTtp9uua/yoAHW7aMqFL2jnHzieRDkMyNjUtGbLdz84qqpN8rKytfNfsmrNbaptBEKR6+6DsfJPe6fhNu+hfsjS02PD7l/PPiEIQtXBIZlwuFznX85ckvb2Rv/9T8/rXM7j3Y/OZoKUzM6h81cS9PT01PVn1+j0jeh6abPLvbfivM4V7tsO3I0VCMXuVNts3v5FprFtb5Wv/Ccj4qvvf3Y2NjGhHNq793BCL00fqaXRBcDug3FJIjFJmQj+9dyVFBaLpa4XEQAA+PDzDb7WNrZVVNt8sTvCRFXtUQdp2ZVwO+Yx5TZffbO+zMjCXuXLOstjyLCwkQHBwygDn1cjcwe18YWtqmpTd2ttE7bevJdPOUW375ChKX6BwTJPCtQdzCwsfBeuWB1BtU15VaOfNqXGZfHl3mjKN7I2traVM+Z/yMSkXErDYrGcfzx1gTJ8JBKJHfccitfoxb40ugDY+VMs5ZNf/0G++f5BweEqag5tBEFY7f/tDGUgsL6R3z89p6JARU3qdofPUr85tbG1JCfNXa2WT/4v0Pv5zEXKgBNJgtkPx+/rTGp87+HEZGnjwg9duKIHatTv35WP1mwcYGBoSNkX/Pn2W0Wqak93S0kry2ts5lPe3E+cO96uTv3+XRkaFj7Ca4AP5VPIjp9i1K4LQx5q/4/QlaLS+rLyqkbKGf+27v/xKahBclgWAUOHBVhaWVOuH7/mm9sFKmpOtxKLSThxgXpOnfWb15SwWCwLFTVJIaZm5j7BI0ZRzv73zYG7an+zY8qOH+/xqD4fPublJBNTM1VM0KUwFotls2z1Osr5Oi7fyemlKysGfvbNTcqJzqysras8fcLU+o3sc/S27fvpCdUGJeUNgzV5Ui+NLQD2HE7IBYqbu5m5ZWX/gb6UISM1Y7hy01dSXhXnOauqMd0p/kExFJd1nZ1jsQgYO3Ue5VAddbN51z7KiQyKyhoGtbQKtHrpUQCAxmZ+U1lV40CqbTbs+K5JVe1hwqxFS12oFoYSicROdxMLs1XZpu5y+95jytE4O/Z8XQsszXlo9vELCDQ1M6fqntX7/miCxv7bamwBcPZqOuW36JMNmzIBwEhFzWHE62/N8GKxWF1eSFrbhB5lVY2Uwwa1wa171H3/c957q1GPa+iumtYwo0ev3sE2dvZUFxLuhVvZWh8GPHc9MxMAuvzZtbV3qHb38ByqwiYpjMfl9R4xdhzlK6tDpx9o7FOirIrK6sv5AlGPrj5nsVjk8Jcn9lRlmxhg/PHajZTds6cuZ2jsfVQjG06SJPm4sJZy1b7X35whdWpRdcPhct0Ch4VRjR0nfr+YlquyBnWTiDjKt27wxuwPKLtK1BRvzoKllDf4I2ceaP0bgKN/PKJ8up+7+MN0AKDsIlBHC1esrqP6/EpUrrom3hlz7I+HlKuejv7PS/nANde4rq5Jb79DOVdFzpPqXpo6M6BGFgC5BTXFYpK06upzKxvbeiMTE7VOmXbl7bnzKGeGu3gzR6OHnUhDkiQkPCih3MajX5C6jQuXyYSp0yhDiwkPSjTyzyWPpEellBfT8ZOnGqqqLUzy8fX3oPq8vLKJ8nNtcCUijzLnMHP2O8pf4UcJTM3MvS2trLvskxSLSdvHT2upL1pqSiMLgIQHxZRPgKPHTcgBDf2zBQ0fQXkBzHlcpVHdGvIqrWiExuaul9329+/fztbjKGV5X2VzdnWjvAnU1Lc6qKot3aWuoZUqAEY6Obtq2itiAJDM+eDg7NLldYkkSXNt777LefKM8to0OGCIRoR2O8Ee8fJ4yn7+hIclFapqDJM07nUMAEBM8lPKYTf6eu022Q+jGHtVXlmUTzmrVdytsyI7JydGzldfW0s5PKryWZNG3vxklZVPfY3U1zeueXCfudBN9M0blK9mL/9xpj1k1Ohops5nbGo6qKmhodM5HcRi0q62obXBwtSguxa8Uara+tZasZi06epzK2vLtpzUuzUAwMj6CI9ioyn/HpNi75k7efRh7Drh6mpvVlbc9Yi/5NSykvEjTTSua1JW1TXNlAVscf5DA0OGpkSoKq+kfOVeWZTvyuQ9wIgnorzuxiYXNb31qkYMXPkHjSwAsvKqKcdVH/r5sPuhnw+rqjkwc8rblHkEJgmEYkeSJEmCILp98QxlKCyh7EqFu3fjbO+GBqqsCPp6/WehX6//TFWng9wnNeVDBjppZQGQ/bi6CgC6fAp8Vl1jMHbo8F6qas++vYdM9+09pLK/60eZFU3jR6rsUqFSIpFY3C4SUxYAY0dOYfJ+Q9mdEBsTbzt26HCVXSfScyjncVNbGvmavKlFqNVPwVLotba1a+2scZXPmrU64yBNdU2L1i4gU13TqrV/NllUVDdpZB+4LBqbBS0AoJUPJbJoaGrVyHuSRhYAz2qa1WHZ125TVdsi7O42KMuFG5mamPBnTNLDYo2YuIqO7PwqdVqxUeUKi2v7d3cblKWyqlnn1jx4Xm1dq8reXDFJIwuAplaBRnZdMOVpSZ3WBgHLKps0cjgNU3ILarT2u11W1aiVXRuyelbXqglTV9PytLxO64c5UmlqEWrkz61GFgAcNlujZoFjmrERVzM7nGSgz9PT6dfEVpYGXQ+B0HBGBlxGwn2aisfT09p5HsyM9bX2miQLjh5LI9/KamQBwOawCru7Dd2Jp6entTcJF0cznb6QuDtbaO1NwsLcIKe729CdDPQ5ad3dBmXhcfUoR2ZpOzZbM+9JGlkAtAtF1FFxpLE4eiyd7ktEWk2n325pM2G7WCPvSRrZbyHN97/+8MTOgbkFp7asW2eeGJfc5fAlps+3ac1a8/sJKZo6aYZSffDxitiQ8FGMdQEdObDf9PrFc10uTrPgk09jhw4fobLz6bJpb79eOmX6DMZuksnxcewvN27rMnj45vQpZdNmvsvY+eLv3WVv3fgV5ZwhusovcHDtp2vX1DJ1vMryMmLh3IVdrjsQEORbu3rDBsZuyhVlpfDBrPldnk9TaWQBQAJQBsVGvvYuyeXxGJtRzNHtRBLEJfur6nwObsfuQ0KKH1PH0ybTZs6BHr36hDJ1vPLSksjrF891+fnUmXOgh2cvlZ1Pl/kPn5AbMGLScKaOZ+3sHUtVAPiFjcsZHDqBsfOZ2nrGYAHQOWf3vvkBIyZ1eQ2VF7+t7THMXdjl545uXvmDQycwdj4Bn/8YYD5Th1MbGtkFgBBCCCHFYAGAEEII6SAsABBCCCEdhAUAQgghpIOwAEAIIYR0EBYACCGEkA7CAgAhhBDSQVgAIIQQQjoICwCEEEJIB2EBgBBCCOkgLAAQQgghHYQFAEIIIaSDsABACCGEdBAWAAghhJAOwgIAIYQQ0kFYACCEEEI6CAsAhBBCSAdhAYAQQgjpICwAEEIIIR2EBQBCCCGkg7AAQAghhHQQFgAIIYSQDsICACGEENJBWAAghBBCOggLAIQQQkgHYQGAEEII6SAsABBCCCEdhAUAQgghpIOwAEAIIYR0EBYACCGEkA7CAgAhhBDSQVgAIIQQQjoICwCEEEJIB2EBgBBCCOkgLAAQQgghHYQFAEIIIaSDsABACCGEdBAWAAghhJAO+l97dx5lZ10ecPx5Z+5smck+kxBIlEAAA1FkkUV2alsFqufIkc1irQdErHWty7E9xdrltJ5WsVVxP1QUxe2UquniguxBCFQMS1hjgZCQhCSTbSaZuW//iKlhuXeSyb33nXt/n89fMO973/fJncnvfnPfe+cKAABIkAAAgAQJAABIkAAAgAQJAABIkAAAgAQJAABIkAAAgAQJAABIkAAAgAQJAABIkAAAgAQJAABIkAAAgAQJAABIkAAAgAQJAABIkAAAgAQJAABIkAAAgAQJAABIkAAAgAQJAABIkAAAgAQJAABIkAAAgAQJAABIUKnoAerhsBk9B2VZVrPjlcvlYxt8vmNqdrAWc+YrF55Y4/v6tKrnO/Kwhp4vZR+87G2nffCyt9XykCeOdb4PX35JzU6W5/mra3awFnP9ddcee/1119bykAeNdb4ffOdbNTtZnudVz9esWjIA8jyPPM9b9nwp872llsrlctEjUCe+t2NzCQAAEiQAmlAeyhZgosijOZ8lbMoAmNLXvb3oGYrUP6N3ctEz1MvMGb3N+TepRvafNbmr6BnqZXZ/X2fRMxRpv/6+2r2YZILpnzGpr+gZijS1SR+TmjIALjn/qKJHKMy0yV3LZvf3zSx6jnp511uO3z8iRoueowhtWfbs604/5LCi56iXs8889LAsy9YVPUdBRt7xh6+aW/QQ9bL/7MmzJvd13Vf0HEW59MLmfN12UwbABy496cSXHjD1jqLnaLQsi8GffOOPu4ueo56OO/KAQ8993RE3Fz1HAUY+89fnPDS5r6u36EHqZUpfV9+//NXZD0XESNGzNNr55yy65ehFcw4ueo56+sk33tqRZbGp6Dkabf686Xe8/5JXN+U7QJryXQBZlmWP3fz+V7334/9x49Xfvad/eHjHlEacd3Q0n1zO80kRkWWRbW9rzza2ZfX/12qWZTsOO6j/6eu//Ob5B86dtqDe5yvad686//Srvn7nkis++dPujZuGGvJsx2g57ymXY3JE3p5FtqOtLRtsa4v6P62XZeXZA32rv/7JcyefevyBJ9T9fAX7k7ccd+KiQ2fdf/EHvrd59ZrNsyPP6/6PkHI5OkfL+ZSIvCMiG21ri03tbdm2ep83ImLqlJ61f/vB12y/9IJjTm/E+Yp03JEHHPrwz9/71BsuvfbeR1asm5PneUe9z1nOo1QezafmkXdGRLkty7a0t2eb633eiIjuro7Bt5139Lp/+ovXntyI89XDeK9JXRsRF1ba+N/XvGXZ756yYNE4jw0A/MaPb35k2e9d/LVqj6nfjIiL9va4TXkJAADYNwIAABIkAAAgQQIAABIkAAAgQQIAABIkAAAgQQIAABIkAAAgQQIAABJU6bMAOiLisIio9NGkM6od9LZ7ntjQ3dXxwL4MBgDsfEwdY5cZEVHpIwm3R8SDEbHj+Rte7LMALoiIf46Igb0ZEACYkNZExLsi4tu7f/H5AXBORPygURMBAA1zdkQs3vU/zw+AB2PnU/8AQGt5ICIO3/U/uwdAT0Rsbfg4AECjTIqIbRHPfRdApRf8AQCt4f8f670NEAASJAAAIEGVfg/AC0yd0rXxTWctes57+3eMlHu3De/oz8t5R6nUvnlST8czWUS59mMCQNryiLat23bMGhkZ7cvash09XR1rO0ptW3bf5zuLly3cODg8dU+Ot8cBsOClM1d9/P1nnlBll/6IOHBPjwcA7JM5z//CPfc9vXzpr1buUQC4BAAACRIAAJAgAQAACRIAAJAgAQAACRIAAJAgAQAACRIAAJAgAQAACRIAAJAgAQAACRIAAJAgAQAACRIAAJAgAQAACRIAAJAgAQAACRIAAJAgAQAACRIAAJAgAQAACRIAAJAgAQAACRIAAJAgAQAACRIAAJCgbLf/nhYR6yvt2NVZ2nr4IQMrdv/a6Gg+ZbRcnhZ5tGdZDJdK7WuyLHbUadYx5XneNTJS7i/n0ZVlsaO9vW19e1u2uah5ijBazvtGR8sz8jxKbVkMl0pta7MsGy56LqC5WE8n3nqa59ExMjI6kOfRFVmMtre1bWhvzwZ33+f+h9ccOLx9ZFKVw8yI3zzW73EAAABNb3pEbIhwCQAAkiQAACBBuwfAtojIixoEAKirPHY+1kfEcwNgOCKWNHwcAKARbo+dj/UR8dwXAUZEHP2bHTobOREAUFfbI+LEiLh71xee/xqAuyPihIi4NSLKjZsLAKiDckTcEhHHx24P/hEvfAZgdx0R0Vdh25ci4txKN3z6rg8tnT2z9+C9HHLc7rlv1bJjzrnq5ErbP/LOU2467+xFxzRqniJc94NlS//h8zefWmn7PYvfecuRC2cvauRMQPP55QOrlx111ucqrqcffscpN53/B629nn77R8uW/v3nKq+nS394+S1HHbFfw9bT1eu2PDrn2E9Uu8+/FxGXVti2OeLFfz9PqcoBd0Tl3wuwvcrtoruz1JVl2bRq+9RSb29n+xjz5FkWvY2apwhd3e1VX8DZ29PR3sjvCdCcens6qq6nXd3tLb+edneWqq+nvZ0NXU+7O0tdY+yyPcbxe3y8DRAAEiQAACBBAgAAEiQAACBBAgAAEiQAACBBAgAAEiQAACBBAgAAEiQAACBBAgAAEiQAACBBAgAAEiQAACBB1T4OuGVs2DTcXh7Nn6m2TznP27Isy7OIqh8D2Wh5RJbnedaWZeVq+20cHEriewkUa+PgUKnaerprzWrm9XTDpuGqH4ncKpJ40LjyK7edfOVXbit6jHqbVfQAQOv79FeXnPTpry4peox6S2I9dQkAABIkAAAgQS1xCUDFjC3LsqJHqLuRkfKTdy97+vG1z26pen2PiKHhkZ5NW4anRURM7uta391ZGip6poluYGZf21FH7HdQqdR2QNGz1FMKa8W+apXHnJYIgGlTuruLnmGimza1q6foGerpZ7c9duNZb/36CcPbR+YWPQutq7urNLT46otvPOPE+acVPUu9TJ3S2mtFLUyb2t0S91FLhMzAzN6FB86dvrLoOSaqg18y46n+6b0Li56jXlau3nTXa978r6cObx/pKnoWWtvQ8Ej371x09alPr9m8tOhZ6mVgRu/LrKeVzZ83feXAjN6XFT1HLbREAERE9y+uf/vqyb2dW4oeZKKZ0te1ecn1l66JiJZ9cPzTK37Unue55y1piDzPs/d8bHEr/7xZTyuY3Nu55Y7r3/5MRLTEs84tcQkgImJgZu9Ra//no0988ku33X3TnSumbt4y3FFt/9VrN/c99Ni6eZW2z+rvXTN/3rR1tZ90bI8/sWHmM2u3DFTa/rKD+/93YGZv1b+cfb1dO04//sAN77vk1fM7Sm2vrP2UE8e9D6yqeF9BPdyzbGVLv02s1uvpwPRJa+buP3Vt7Scd25MrN/avWb/VevoiWiYAIiI6O9rmfeSdJ8/7SJw85r6P/nr9kgWnfariD+zbLzjm/nPPOqKQ63zfW3zfjX/zmZsqnnvx1RevnD9v+gmNnGkiGxnNW+WZLJpECj9ze7OePrLi2dsPOf3KiuvpOy4+7v43vnah9XSCafkfYgDghQQAACSopS4BwPNlWVb+uwvOvrXoOSaKj33nP48ZHhmZ9GLbukqlrR9702tb9tXte+uj3/rRSXne+k/1ky4BQEvLIvIFcwZOKXqOiaKjvW3j8EjFbTvcV7+VRYxOqE+ygRpTtwCQIAEAAAkSAACQIAEAAAkSAACQIAEAAAkSAACQIAEAAAkSAACQIAEAAAkSAACQIAEAAAkSAACQIAEAAAkSAACQIAEAAAkSAACQIAEAAAkSAACQIAEAAAkSAACQIAEAAAkSAACQIAEAAAkSAACQIAEAAAkSAACQIAEAAAkSAACQIAEAAAkSAACQIAEAAAkSAACQIAEAAAkSAACQIAEAAAkSAACQIAEAAAkSAACQIAEAAAkSAACQIAEAAAkSAACQIAEAAAkSAACQIAEAAAkSAACQIAEAAAkSAACQIAEAAAkSAACQIAEAAAkSAACQIAEAAAkSAACQIAEAAAkSAACQIAEAAAkSAACQoFLRAwD7ZOumbUMPZ1mW9XV3HRIRPS12PqBOBAA0qVXrB5f8+XWLDx3cuu3IiIipk3rW/c2FZ/1yv6lTTmiF8wH15RIANKEtw9t/9Z6rv/+qwa3bZuz62sat22a++6vfP27z0PC9zX4+oP4EADShz/7XzaPlPG9//tfzPG+76se3jjb7+YD6EwDQhB5auWZe5W3PVNzWLOcD6k8AQBMaHR2t+PqdkZHRjmY/H1B/AgAAEiQAACBBAgAAEiQAACBBAgAAEiQAACBBAgAAEiQAACBBAgAAEiQAACBBAgAAEiQAACBBAgAAEiQAACBBAgAAEiQAoAmVSu07Km8rbR/PMfMGnw8olgCAJnTE3Dm/rrRt0bz9Km5rlvMB9ScAoAld/vsn9ZXa217wL+/2traRy15zUu94jpk1+HxAsQQANKGuUumwqy45b9msKX0rd31t9rTJT33+0vPu7e4sLRzPMatdAqjH+YBilYoeABifab09R3/2kjeNDu8YeSQioqujND8iDmiV8wH1JQCgubV3dZQW1OJA1S4B1ON8QLFcAgCABAkAAEiQAACABAkAAEiQAACABAkAAEiQAACABAkAAEiQAACABAkAAEiQAACABAkAAEiQAACABAkAAEiQAACABAkAAEiQAACABAkAAEiQAACABAkAAEiQAACABAkAAEiQAACABAkAAEiQAACABAkAAEiQAACABAkAAEiQAACABAkAAEiQAACABAkAAEiQAACABAkAAEiQAACABJWKHqCWhoZHHr3iUz9bteSeJ2fkeV5139VrNx9Qbftnr7nz8H/7yfL7azrgHnrq6cHDq20/663X7D8ws/eBavtkWRYnHTvv2Svec+acrs72g2o7IaQtj+rrSyvYy/V0brXtn7/mF4f/8KfLq65Z9fLkyo1V19PX/dHX9p/V37dH6+lfvvuMOd1dpZZZT1smAJ5aPXjnglOvfPnQ8MjBtTje+o3bBtZv3DZQi2PV2oOPrn3Jg4+uHXO/m+5YEZ/68u1Dj938vrvmzJp8bANGA1pArdfTNeu3DqxZv3VCrqfLH1v3kuWPrRtzv13r6aM3ve+u/We3xnraKpcAth7/hi++ZGh4pLvoQSaaoeGR7uPf8IV5EbGt6FmApmA9rWBoeKT7uJ3r6daiZ6mFlgiAZ9ZufvCpVYOzi55jonri6cHZa9ZtebDoOYCJb826Lcutp5U9tWpw9jNrtywveo5aaIkA2LhpeLjoGSa6jZuGh4qeAZj4Nm4asp6OYeOmoZZYT1siAMpFD9AExnoRD7DnssiKHqFu8hRe4biPWuUxpyUCAADYOwIAABLUMm8DrOZDl5984wXnvPzIavvkkWdZZBPyqa89me3af7/33n/8wq2nNmomIE1/dtlJN130+le8oto+zb6efuuHv/rlJ6665bRGzVSUJAJgUldHZFlMq7bPRL6mtyezTerpmJB/2YDWMqmnI2/59bSrowGTFM8lAABIkAAAgAQJAABIkAAAgAQJAABIkAAAgAQJAABIkAAAgAQJAABIkAAAgAQJAABIkAAAgAQJAABIkAAAgATV5eOAv3Ld0mcXHjxwYz2O/WJuWLKi6mc33nD749NmTO9p2DxFuOG2FVU/nvOL31yan3HCgS15H2wY3HZUpW15RHb340+25J97PLaPjh5Xadvw6Gin++q38ohTKm3bMLitb/HPHmrJ+2rM9fS2FdP6p09qyT/7Ljfc/njV9fTLDV5PH3h0zVifYTyuz18e74c2XxsRF47ztgBA7XwzIi7a2xu5BAAACRIAAJCg8QbAaE2nAADGa1yPyeMNgIfGeTsAoLaWj+dG430RYH9ELIuI2eO8PQCw79ZGxKKIWL23NxzvMwBrI+KNEfH4OG8PAOybxyLi9TGOB/+I8T8DsEtPRJwREXP38Ti1ND8i9ouI9RHxcKT3eoX2iDg0IqZFxKpIK9Imx84/e1vs/N5vKHacCW1K7LyvInZe0hsscJaJbnpq+6cAAAAsSURBVHpELIiIcux8qnVzseM0lPU04pDY+TMw0dbTJyLi5xGxreA5AIBm8n9rHUstumnZ6gAAAABJRU5ErkJggg==;" parent="7" vertex="1">
                    <mxGeometry x="630" y="70" width="312" height="312" as="geometry"/>
                </mxCell>
                <mxCell id="41" value="" style="ellipse;whiteSpace=wrap;html=1;aspect=fixed;strokeColor=#000000;fillColor=default;" parent="7" vertex="1">
                    <mxGeometry x="40" y="140" width="30" height="30" as="geometry"/>
                </mxCell>
                <mxCell id="40" value="" style="ellipse;whiteSpace=wrap;html=1;aspect=fixed;strokeColor=#000000;fillColor=none;" parent="7" vertex="1">
                    <mxGeometry x="40" y="180" width="30" height="30" as="geometry"/>
                </mxCell>
                <mxCell id="39" value="" style="ellipse;whiteSpace=wrap;html=1;aspect=fixed;strokeColor=#000000;fillColor=none;" parent="7" vertex="1">
                    <mxGeometry x="40" y="220" width="30" height="30" as="geometry"/>
                </mxCell>
                <mxCell id="38" value="" style="ellipse;whiteSpace=wrap;html=1;aspect=fixed;strokeColor=#000000;fillColor=none;" parent="7" vertex="1">
                    <mxGeometry x="40" y="260" width="30" height="30" as="geometry"/>
                </mxCell>
                <mxCell id="36" value="" style="ellipse;whiteSpace=wrap;html=1;aspect=fixed;strokeColor=#000000;fillColor=none;" parent="7" vertex="1">
                    <mxGeometry x="40" y="300" width="30" height="30" as="geometry"/>
                </mxCell>
                <mxCell id="37" value="" style="ellipse;whiteSpace=wrap;html=1;aspect=fixed;strokeColor=#000000;fillColor=none;" parent="7" vertex="1">
                    <mxGeometry x="40" y="340" width="30" height="30" as="geometry"/>
                </mxCell>
                <mxCell id="35" value="" style="ellipse;whiteSpace=wrap;html=1;aspect=fixed;strokeColor=#000000;fillColor=none;" parent="7" vertex="1">
                    <mxGeometry x="40" y="380" width="30" height="30" as="geometry"/>
                </mxCell>
                <mxCell id="49" value="&lt;font color=&quot;#000000&quot;&gt;&lt;br&gt;&lt;font style=&quot;font-size: 22px;&quot;&gt;Monday&lt;/font&gt;&lt;/font&gt;" style="text;html=1;strokeColor=none;fillColor=none;align=center;verticalAlign=middle;whiteSpace=wrap;rounded=0;" parent="7" vertex="1">
                    <mxGeometry x="110" y="140" width="60" height="30" as="geometry"/>
                </mxCell>
                <mxCell id="48" value="&lt;font color=&quot;#000000&quot;&gt;&lt;br&gt;&lt;font style=&quot;font-size: 22px;&quot;&gt;Tuesday&lt;/font&gt;&lt;/font&gt;" style="text;html=1;strokeColor=none;fillColor=none;align=center;verticalAlign=middle;whiteSpace=wrap;rounded=0;" parent="7" vertex="1">
                    <mxGeometry x="110" y="180" width="60" height="30" as="geometry"/>
                </mxCell>
                <mxCell id="47" value="&lt;font color=&quot;#000000&quot;&gt;&lt;br&gt;&lt;font style=&quot;font-size: 22px;&quot;&gt;Wednesday&lt;/font&gt;&lt;/font&gt;" style="text;html=1;strokeColor=none;fillColor=none;align=center;verticalAlign=middle;whiteSpace=wrap;rounded=0;" parent="7" vertex="1">
                    <mxGeometry x="110" y="220" width="60" height="30" as="geometry"/>
                </mxCell>
                <mxCell id="46" value="&lt;font color=&quot;#000000&quot;&gt;&lt;br&gt;&lt;font style=&quot;font-size: 22px;&quot;&gt;Thursday&lt;/font&gt;&lt;/font&gt;" style="text;html=1;strokeColor=none;fillColor=none;align=center;verticalAlign=middle;whiteSpace=wrap;rounded=0;" parent="7" vertex="1">
                    <mxGeometry x="110" y="260" width="60" height="30" as="geometry"/>
                </mxCell>
                <mxCell id="45" value="&lt;font color=&quot;#000000&quot;&gt;&lt;br&gt;&lt;font style=&quot;font-size: 22px;&quot;&gt;Friday&lt;/font&gt;&lt;/font&gt;" style="text;html=1;strokeColor=none;fillColor=none;align=center;verticalAlign=middle;whiteSpace=wrap;rounded=0;" parent="7" vertex="1">
                    <mxGeometry x="100" y="300" width="60" height="30" as="geometry"/>
                </mxCell>
                <mxCell id="44" value="&lt;font color=&quot;#000000&quot;&gt;&lt;br&gt;&lt;span style=&quot;font-size: 22px;&quot;&gt;Saturday&lt;/span&gt;&lt;br&gt;&lt;/font&gt;" style="text;html=1;strokeColor=none;fillColor=none;align=center;verticalAlign=middle;whiteSpace=wrap;rounded=0;" parent="7" vertex="1">
                    <mxGeometry x="100" y="340" width="60" height="30" as="geometry"/>
                </mxCell>
                <mxCell id="43" value="&lt;font style=&quot;font-size: 22px;&quot; color=&quot;#000000&quot;&gt;Sunday&lt;/font&gt;" style="text;html=1;strokeColor=none;fillColor=none;align=center;verticalAlign=middle;whiteSpace=wrap;rounded=0;" parent="7" vertex="1">
                    <mxGeometry x="100" y="380" width="60" height="30" as="geometry"/>
                </mxCell>
                <mxCell id="50" value="&lt;font color=&quot;#000000&quot;&gt;&lt;span style=&quot;font-size: 22px;&quot;&gt;You must pay the regular price.&lt;/span&gt;&lt;/font&gt;" style="text;html=1;strokeColor=none;fillColor=none;align=center;verticalAlign=middle;whiteSpace=wrap;rounded=0;" vertex="1" parent="7">
                    <mxGeometry x="30" y="540" width="320" height="30" as="geometry"/>
                </mxCell>
            </root>
        </mxGraphModel>
    </diagram>
</mxfile>